<?xml version="1.0" encoding="UTF-8"?>
<svg width="34px" height="44px" viewBox="0 0 34 44" version="1.1" xmlns="http://www.w3.org/2000/svg" xmlns:xlink="http://www.w3.org/1999/xlink">
    <!-- Generator: Sketch 56.2 (81672) - https://sketch.com -->
    <title>Group 10 Copy@2x</title>
    <desc>Created with Sketch.</desc>
    <defs>
        <polygon id="path-1" points="0.000472552448 0.203816092 33.8079773 0.203816092 33.8079773 44 0.000472552448 44"></polygon>
        <polygon id="path-3" points="0.220242568 0.204 23.8103372 0.204 23.8103372 20 0.220242568 20"></polygon>
        <polygon id="path-5" points="0 0.206071429 23.8229034 0.206071429 23.8229034 20.732319 0 20.732319"></polygon>
    </defs>
    <g id="Page-1" stroke="none" stroke-width="1" fill="none" fill-rule="evenodd">
        <g id="Home-Desktop" transform="translate(-691.000000, -2566.000000)">
            <g id="Group-10-Copy" transform="translate(691.000000, 2566.000000)">
                <g id="Group-3">
                    <mask id="mask-2" fill="white">
                        <use xlink:href="#path-1"></use>
                    </mask>
                    <g id="Clip-2"></g>
                    <path d="M0.000472552448,44.0006249 C0.000472552448,42.1181779 0.602189336,32.7934259 12.9358082,22.1001896 C13.7123694,21.4175097 14.4889306,20.8176262 15.3521264,20.1349462 C15.8672086,19.7069043 16.3854411,19.2804246 16.9052488,18.8492583 C28.9773886,8.75590559 28.71906,0.290361788 28.71906,0.202878774 L33.8084498,0.202878774 C33.8084498,2.08688797 33.2051579,11.4100778 20.871539,22.1001896 C20.0949778,22.7875562 19.3199918,23.3874397 18.4552208,24.0701196 C17.9401386,24.4965993 17.4219061,24.9246412 16.9052488,25.3526831 C4.82995857,35.4491603 5.08671206,43.9147041 5.08671206,44.0006249 L0.000472552448,44.0006249 Z" id="Fill-1" fill="#06678C" mask="url(#mask-2)"></path>
                </g>
                <g id="Group-6" transform="translate(10.000000, 24.000000)">
                    <mask id="mask-4" fill="white">
                        <use xlink:href="#path-3"></use>
                    </mask>
                    <g id="Clip-5"></g>
                    <path d="M1.84972905,13.2609231 L16.8022966,13.2609231 C16.2872291,12.2516923 15.6909993,11.2393846 14.9215196,10.1470769 L5.86101284,10.1470769 C4.92296554,10.1470769 4.23933041,9.38707692 4.23933041,8.544 C4.23933041,7.70092308 4.92296554,6.94246154 5.86101284,6.94246154 L12.5319182,6.94246154 C11.5064655,5.85015385 10.3967291,4.58246154 9.11062095,3.40553846 C9.45399932,3.06861538 9.88166149,2.73169231 10.2219182,2.47784615 C11.0788034,1.80553846 11.8482831,1.13169231 12.7004858,0.456307692 C12.7863304,0.373230769 12.872175,0.290153846 12.9595804,0.204 C23.299952,9.97476923 23.8103372,18.2301538 23.8103372,20.0009231 L18.7689182,20.0009231 C18.7689182,20.0009231 18.7689182,18.6532308 18.0852831,16.3778462 L1.84504662,16.3778462 C0.906999324,16.3778462 0.220242568,15.7024615 0.220242568,14.8624615 C0.223364189,13.9332308 0.906999324,13.2609231 1.84972905,13.2609231" id="Fill-4" fill="#06678C" mask="url(#mask-4)"></path>
                </g>
                <g id="Group-9">
                    <mask id="mask-6" fill="white">
                        <use xlink:href="#path-5"></use>
                    </mask>
                    <g id="Clip-8"></g>
                    <path d="M7.10388288,7.19353333 C7.62125959,8.24160476 8.22565685,9.28967619 9.01042397,10.4254857 L18.1080267,10.4254857 C18.9719034,10.4254857 19.7503418,11.2151286 19.7503418,12.0861286 C19.7503418,12.9571286 18.9719034,13.7451762 18.1080267,13.7451762 L11.4343418,13.7451762 C12.475424,14.8809857 13.6019445,16.1922714 14.8993418,17.4126286 C14.554424,17.7619857 14.1193212,18.1129381 13.7744034,18.3745571 C12.9057801,19.0732714 12.1257596,19.773581 11.2634651,20.4707 C11.1796089,20.5584381 11.0910062,20.6461762 11.0008212,20.732319 C0.517218493,10.6025571 -0.000158219178,2.03931905 -0.000158219178,0.204795238 L5.11032123,0.204795238 C5.11032123,0.204795238 5.11032123,1.60381905 5.80173904,3.96477143 L22.1790062,3.96477143 C23.0413007,3.96477143 23.8229034,4.66189048 23.8229034,5.53448571 C23.8229034,6.49641429 23.0460473,7.19353333 22.1790062,7.19353333 L7.10388288,7.19353333 Z" id="Fill-7" fill="#06678C" mask="url(#mask-6)"></path>
                </g>
            </g>
        </g>
    </g>
</svg>