<?xml version="1.0" encoding="UTF-8"?>
<svg width="10px" height="11px" viewBox="0 0 10 11" version="1.1" xmlns="http://www.w3.org/2000/svg" xmlns:xlink="http://www.w3.org/1999/xlink">
    <!-- Generator: Sketch 56.2 (81672) - https://sketch.com -->
    <title>Fill 1@2x</title>
    <desc>Created with Sketch.</desc>
    <g id="Page-1" stroke="none" stroke-width="1" fill="none" fill-rule="evenodd">
        <g id="Home-Desktop" transform="translate(-1133.000000, -42.000000)" fill="#648339">
            <g id="Group-10" transform="translate(549.000000, -29.000000)">
                <g id="Group-3" transform="translate(594.500000, 42.500000) rotate(-135.000000) translate(-594.500000, -42.500000) translate(570.000000, 8.000000)">
                    <path d="M4.5004,-0.000200000006 C4.27374694,-0.000200000006 4.07795102,0.0813797101 3.91246122,0.244727536 C3.7534,0.414292754 3.67386939,0.615321739 3.67386939,0.847626087 L3.67386939,10.1079594 L1.40550204,7.78095942 C1.24625714,7.61761159 1.0534,7.53603188 0.826930612,7.53603188 C0.600277551,7.53603188 0.404481633,7.61761159 0.238991837,7.78095942 C0.0799306122,7.95052464 0.000400000004,8.15155362 0.000400000004,8.38385797 C0.000400000004,8.61635072 0.0799306122,8.81398841 0.238991837,8.97752464 L3.91246122,12.7456406 C4.07795102,12.9150174 4.27374694,12.9998 4.5004,12.9998 C4.72686939,12.9998 4.91972653,12.9150174 5.07897143,12.7456406 L8.75244082,8.97752464 C8.91756327,8.81398841 9.0004,8.61635072 9.0004,8.38385797 C9.0004,8.15155362 8.91756327,7.95052464 8.75244082,7.78095942 C8.59319592,7.61761159 8.40033878,7.53603188 8.17386939,7.53603188 C7.94721633,7.53603188 7.75142041,7.61761159 7.58593061,7.78095942 L5.32693061,10.1079594 L5.32693061,0.847626087 C5.32693061,0.615321739 5.24409388,0.414292754 5.07897143,0.244727536 C4.91972653,0.0813797101 4.72686939,-0.000200000006 4.5004,-0.000200000006 Z" id="Fill-1"></path>
                </g>
            </g>
        </g>
    </g>
</svg>