<?xml version="1.0" encoding="UTF-8"?>
<svg width="51px" height="51px" viewBox="0 0 51 51" version="1.1" xmlns="http://www.w3.org/2000/svg" xmlns:xlink="http://www.w3.org/1999/xlink">
    <!-- Generator: Sketch 56.2 (81672) - https://sketch.com -->
    <title>Instagram@2x</title>
    <desc>Created with Sketch.</desc>
    <g id="Page-1" stroke="none" stroke-width="1" fill="none" fill-rule="evenodd">
        <g id="Home-Desktop" transform="translate(-694.000000, -5144.000000)" fill="#98C23D">
            <path d="M738.937812,5144 L700.062188,5144 C696.713935,5144 694,5146.70698 694,5150.04828 L694,5188.95172 C694,5192.29163 696.713935,5195 700.062188,5195 L738.937812,5195 C742.286065,5195 745,5192.29163 745,5188.95172 L745,5150.04828 C745,5146.70698 742.286065,5144 738.937812,5144 L738.937812,5144 Z M730,5152.60028 C730,5151.71775 730.71648,5151 731.599162,5151 L736.399441,5151 C737.28352,5151 738,5151.71775 738,5152.60028 L738,5157.39972 C738,5158.28364 737.28352,5159 736.399441,5159 L731.599162,5159 C730.71648,5159 730,5158.28364 730,5157.39972 L730,5152.60028 L730,5152.60028 Z M719.999291,5160 C725.522303,5160 730,5164.47825 730,5169.99858 C730,5175.52317 725.522303,5180 719.999291,5180 C714.477697,5180 710,5175.52317 710,5169.99858 C710,5164.47825 714.477697,5160 719.999291,5160 L719.999291,5160 Z M740,5188.37465 C740,5189.271 739.293934,5190 738.422706,5190 L700.577294,5190 C699.706066,5190 699,5189.271 699,5188.37465 L699,5164 L705.307798,5164 C704.486119,5165.21831 704.208097,5167.49182 704.208097,5168.93421 C704.208097,5177.63681 711.095337,5184.71689 719.558495,5184.71689 C728.023029,5184.71689 734.910269,5177.63681 734.910269,5168.93421 C734.910269,5167.49182 734.710699,5165.25235 733.692202,5164 L740,5164 L740,5188.37465 L740,5188.37465 Z" id="Instagram"></path>
        </g>
    </g>
</svg>